<?xml version="1.0" encoding="UTF-8" standalone="no"?>
<svg
   width="231"
   height="195"
   viewBox="0 0 231 195"
   fill="none"
   version="1.1"
   id="svg12"
   sodipodi:docname="art2.svg"
   inkscape:version="1.2.2 (732a01da63, 2022-12-09)"
   xmlns:inkscape="http://www.inkscape.org/namespaces/inkscape"
   xmlns:sodipodi="http://sodipodi.sourceforge.net/DTD/sodipodi-0.dtd"
   xmlns="http://www.w3.org/2000/svg"
   xmlns:svg="http://www.w3.org/2000/svg">
  <defs
     id="defs16" />
  <sodipodi:namedview
     id="namedview14"
     pagecolor="#ffffff"
     bordercolor="#000000"
     borderopacity="0.25"
     inkscape:showpageshadow="2"
     inkscape:pageopacity="0.0"
     inkscape:pagecheckerboard="0"
     inkscape:deskcolor="#d1d1d1"
     showgrid="false"
     inkscape:zoom="4.2923077"
     inkscape:cx="115.55556"
     inkscape:cy="104.60573"
     inkscape:window-width="1920"
     inkscape:window-height="1017"
     inkscape:window-x="-8"
     inkscape:window-y="-8"
     inkscape:window-maximized="1"
     inkscape:current-layer="svg12" />
  <path
     d="M87.6 79.4C86.8 78.8 85.6 79 85 79.8C84 80.8 83 82.2 82 83.6C73.8 94.2 58.8 114 46.2 111.8C43.2 111.2 41 109.6 39.6 106.6C36 98.4 40.6 82.6 45 75.8C45.6 74.8 45.4 73.8 44.6 73C43.8 72.4 42.6 72.6 42 73.2C40 75.4 38 78 35.8 80.8C35.8 77.8 34.6 75.8 33.6 74.8C31.4 72.2 27.4 71.4 23.4 72.8C16.8 74.8 10.8 80 6.2 87.6C2.4 93.8 -1.01328e-06 101.2 -1.01328e-06 106.8C-1.01328e-06 113.2 3 115 4.8 115.6C5.4 115.8 6.2 116 7 116C14.8 116 23.8 103.6 33.4 90.6C34.4 89.2 35.4 87.8 36.4 86.6C34.4 93.8 33.6 102.2 36 108.2C37.8 112.4 41.2 115 45.6 115.6C60.6 118.2 76.4 97.2 85 86C86.2 84.6 87.2 83.2 88 82.2C88.6 81.4 88.6 80.2 87.6 79.4ZM31.2 87C30.8 87.4 30.6 87.8 30.2 88.2C22.4 99 11.6 113.6 6 111.8C4.2 111.2 4 108 4 106.8C3.8 101.8 6 95.2 9.6 89.6C13.6 83 19 78.2 24.6 76.4C25.4 76.2 26.2 76 27 76C28.6 76 30 76.6 30.8 77.4C32.2 79 32.2 81.6 31 85C30.6 85.6 30.8 86.4 31.2 87ZM229.666 46.6C229.066 44.4 226.866 42.4 204.866 41.2C195.866 40.8 184.266 40.4 170.266 40.4C173.266 34.6 175.866 29 178.266 24C186.466 6.8 186.066 4.2 185.866 3.2C185.666 2.2 185.066 1.59999 184.066 1.2C182.466 0.799993 181.066 2.4 180.666 3C177.466 7 171.266 21.6 164.266 40.4C161.666 40.2 158.866 40.2 156.066 40.2C121.266 40.4 86.2656 41.4 85.8656 41.4C84.8656 41.4 84.0656 42.4 84.0656 43.4C84.0656 44.4 85.0656 45.4 86.0656 45.2C86.4656 45.2 119.866 44.2 153.666 44.2C156.866 44.2 159.866 44.2 162.866 44.2C162.066 46 161.466 47.8 160.866 49.6C158.866 53.2 156.666 57 154.466 61C135.066 94.6 117.466 117.6 106.266 124.6C102.866 126.8 100.066 127.2 98.0656 126C92.6656 122.8 94.6656 116.8 98.4656 107.4C100.466 102.6 102.666 97.4 102.466 93C102.066 85.6 96.8656 83.4 92.4656 81.4C90.0656 80.4 87.8656 79.6 87.0656 77.8C84.6656 73 91.6656 64.6 94.4656 61.8C95.2656 61 95.2656 59.8 94.4656 59C93.6656 58.4 92.4656 58.4 91.6656 59C90.4656 60.2 79.4656 71.4 83.4656 79.6C85.0656 82.6 88.0656 83.8 91.0656 85C94.8656 86.8 98.2656 88.2 98.4656 93.2C98.6656 96.8 96.6656 101.4 94.8656 106C91.2656 114.4 87.2656 124 96.0656 129.4C99.6656 131.6 104.266 130.8 109.666 127C123.666 117.4 141.666 90 153.666 70C150.666 78.6 147.866 87.4 145.066 95.8C137.666 119.2 131.866 140 128.066 156.2C121.266 185.4 123.666 190.4 124.466 192C125.666 194.2 127.466 194.6 128.266 194.6C129.466 194.6 130.266 193.8 130.266 192.6C130.266 191.6 129.466 190.6 128.266 190.6C128.266 190.6 127.466 190 127.466 186.8C126.666 171.2 139.666 124.8 152.266 86.6C156.266 74.2 160.466 62.2 164.466 51.2C165.666 48.8 166.866 46.6 168.066 44.2C216.666 44.6 224.866 47 226.066 48C226.466 48.6 227.066 49 227.866 49C228.066 49 228.266 49 228.266 49C229.466 48.8 230.066 47.6 229.666 46.6Z"
     fill="#FF8100"
     id="baseline" />
</svg>
