<svg width="66" height="22" viewBox="0 0 66 22" fill="none" xmlns="http://www.w3.org/2000/svg">
<path d="M22.1681 10.6522V21.9155H15.12C8.94778 21.9155 3.92139 17.021 3.92139 10.9996C3.92139 9.52534 4.21676 8.09571 4.80241 6.75047C6.43203 2.99272 10.0325 0.451159 14.1982 0.123536L14.57 0.09375V4.98328L14.2593 5.01307C12.8436 5.14213 11.4992 5.7527 10.4908 6.74054C9.32972 7.87233 8.68805 9.37641 8.68805 10.9798C8.68805 14.2858 11.4482 16.9763 14.8399 16.9763H17.1418V10.6522H22.1681Z" fill="#FF8100"/>
<path d="M39.7273 11.0046C39.7273 12.4789 39.4319 13.9085 38.8463 15.2538C37.0893 19.3044 33.0407 21.9204 28.5338 21.9204H24.7398V16.9862H28.8139C30.4588 16.9862 32.0018 16.3608 33.1629 15.229C34.324 14.0972 34.9657 12.5931 34.9657 10.9897C34.9657 7.68369 32.2055 4.99321 28.8139 4.99321H17.1467V0.09375H28.5338C34.706 0.09375 39.7273 4.98825 39.7273 11.0046Z" fill="#FF8100"/>
<path d="M35.8723 15.4434H37.1506L38.4339 20.1095L39.9209 15.4434H41.082L42.6149 20.1244L43.8626 15.4434H45.1103L43.2617 21.9164H42.0445L40.5015 17.28L38.9584 21.9164H37.7413L35.8723 15.4434Z" fill="white"/>
<path d="M46.1084 15.4434H49.8871V16.5106H47.3459V18.0693H49.8616V19.1415H47.3459V20.8541H49.938V21.9214H46.1084V15.4434Z" fill="white"/>
<path d="M52.9578 15.4434H54.1648L56.5532 21.9164H55.2597L54.8523 20.7449H52.2601L51.8578 21.9164H50.5796L52.9578 15.4434ZM54.5111 19.7471L53.5486 17.007L52.6064 19.7471H54.5111Z" fill="white"/>
<path d="M58.6921 19.1912V21.9164H57.4546V15.4434H59.5884C60.999 15.4434 61.875 16.1234 61.875 17.3545C61.875 18.2977 61.1875 18.9926 60.0467 19.1465L62.3129 21.9164H60.8055L58.6921 19.1912ZM59.5171 18.2828C60.2046 18.2828 60.6018 17.9204 60.6018 17.3545C60.6018 16.7886 60.1995 16.4362 59.5171 16.4362H58.687V18.2778H59.5171V18.2828Z" fill="white"/>
</svg>
